<mxfile host="Electron" modified="2023-07-02T22:17:19.061Z" agent="Mozilla/5.0 (Windows NT 10.0; Win64; x64) AppleWebKit/537.36 (KHTML, like Gecko) draw.io/21.5.0 Chrome/112.0.5615.204 Electron/24.5.1 Safari/537.36" etag="HX8SewQEgDLUBXj3lWCf" version="21.5.0" type="device">
  <diagram id="C5RBs43oDa-KdzZeNtuy" name="Page-1">
    <mxGraphModel dx="967" dy="2420" grid="1" gridSize="10" guides="1" tooltips="1" connect="1" arrows="1" fold="1" page="1" pageScale="1" pageWidth="827" pageHeight="1169" math="0" shadow="0">
      <root>
        <mxCell id="WIyWlLk6GJQsqaUBKTNV-0" />
        <mxCell id="WIyWlLk6GJQsqaUBKTNV-1" parent="WIyWlLk6GJQsqaUBKTNV-0" />
        <mxCell id="7ehEVVzVoGL6FdmiSFNn-3" value="Constants/ INCOMPLETA&lt;br&gt;" style="swimlane;fontStyle=1;align=center;verticalAlign=top;childLayout=stackLayout;horizontal=1;startSize=26;horizontalStack=0;resizeParent=1;resizeParentMax=0;resizeLast=0;collapsible=1;marginBottom=0;whiteSpace=wrap;html=1;" vertex="1" parent="WIyWlLk6GJQsqaUBKTNV-1">
          <mxGeometry x="140" y="-1080" width="270" height="600" as="geometry" />
        </mxCell>
        <mxCell id="7ehEVVzVoGL6FdmiSFNn-4" value="+ PIXEL_PER_METER: int&lt;br&gt;+ WINDOW_WIDTH: int&lt;br&gt;+ WINDOW_HEIGHT: int&lt;br&gt;+ LEVEL1_MAP: String&lt;br&gt;+ PLAYER_ATLAS: String&lt;br&gt;+ PLAYER_STILL_REGION: String&lt;br&gt;+ PLAYER_RUNNING_REGION: String&lt;br&gt;+ PLAYER_JUMPING_REGION: String&lt;br&gt;+ PLAYER_CROUCHING_REGION: String&lt;br&gt;+ PLAYER_RUNNING_AIMING_REGION: String&lt;br&gt;+ ENEMY_ATLAS: String&lt;br&gt;+ ENEMY_STILL_REGION: String&lt;br&gt;+ ENEMY_RUNNING_REGION: String&lt;br&gt;+ ENEMY_JUMPING_REGION: String&lt;br&gt;+ BACKGROUND_LAYER: int&lt;br&gt;+ GROUND_LAYER: int&lt;br&gt;+ GROUND_BLOCK_LAYER: int&lt;br&gt;+ STAIRS_LAYER: int&lt;br&gt;+ PLATFORMS_LAYER: int&lt;br&gt;+ WALLS_LAYER: int&lt;br&gt;+ SEALEVEL_LAYER: int&lt;br&gt;+ CEILING_LAYER: int&lt;br&gt;+ WORLD_GRAVITY: Vector2&lt;br&gt;+ STATIC_BODY: int&lt;br&gt;+ DYNAMIC_BODY; int&lt;br&gt;+ KINEMATIC_BODY: int&lt;br&gt;+ PLAYER_X: float&lt;br&gt;+ PLAYER_Y: float&lt;br&gt;+ PLAYER_RADIUS: float&lt;br&gt;+ PLAYER_JUMPING_LINEAR_IMPULSE: Vector2&lt;br&gt;+ PLAYER_RIGHT_LINEAR_IMPULSE: Vector2&lt;br&gt;+ PLAYER_LEFT_LINEAR_IMPULSE: Vector2&lt;br&gt;+ MAX_VELOCITY: float&lt;br&gt;+ PLAYER_BULLET_RADIUS: float&lt;br&gt;+ ENEMY_X: float&lt;br&gt;+ ENEMY_Y: float&lt;br&gt;+ BULLET_SIZE: float&lt;br&gt;" style="text;strokeColor=none;fillColor=none;align=left;verticalAlign=top;spacingLeft=4;spacingRight=4;overflow=hidden;rotatable=0;points=[[0,0.5],[1,0.5]];portConstraint=eastwest;whiteSpace=wrap;html=1;" vertex="1" parent="7ehEVVzVoGL6FdmiSFNn-3">
          <mxGeometry y="26" width="270" height="574" as="geometry" />
        </mxCell>
        <mxCell id="7ehEVVzVoGL6FdmiSFNn-53" style="edgeStyle=orthogonalEdgeStyle;rounded=0;orthogonalLoop=1;jettySize=auto;html=1;exitX=0.5;exitY=0;exitDx=0;exitDy=0;entryX=0.581;entryY=1.002;entryDx=0;entryDy=0;entryPerimeter=0;endArrow=none;endFill=0;" edge="1" parent="WIyWlLk6GJQsqaUBKTNV-1" source="7ehEVVzVoGL6FdmiSFNn-18" target="7ehEVVzVoGL6FdmiSFNn-4">
          <mxGeometry relative="1" as="geometry" />
        </mxCell>
        <mxCell id="7ehEVVzVoGL6FdmiSFNn-18" value="&lt;p style=&quot;margin:0px;margin-top:4px;text-align:center;&quot;&gt;&lt;b&gt;WorldUtils&lt;/b&gt;&lt;/p&gt;&lt;hr size=&quot;1&quot;&gt;&lt;p style=&quot;margin:0px;margin-left:4px;&quot;&gt;- mapLoader: MapLoader&lt;/p&gt;&lt;p style=&quot;margin:0px;margin-left:4px;&quot;&gt;- world: World&lt;/p&gt;&lt;hr size=&quot;1&quot;&gt;&lt;p style=&quot;margin:0px;margin-left:4px;&quot;&gt;+ WorldUtils()&lt;/p&gt;&lt;p style=&quot;margin:0px;margin-left:4px;&quot;&gt;+ getWorld(): World&lt;/p&gt;&lt;p style=&quot;margin:0px;margin-left:4px;&quot;&gt;+ createWorldBodies(): void&lt;/p&gt;&lt;p style=&quot;margin:0px;margin-left:4px;&quot;&gt;+ createObject(): void&lt;/p&gt;&lt;p style=&quot;margin:0px;margin-left:4px;&quot;&gt;+ createStaticBody(): void&lt;/p&gt;&lt;p style=&quot;margin:0px;margin-left:4px;&quot;&gt;+ createPerson(): Body&lt;/p&gt;&lt;p style=&quot;margin:0px;margin-left:4px;&quot;&gt;+ createProjectile(): Body&lt;/p&gt;&lt;p style=&quot;margin:0px;margin-left:4px;&quot;&gt;+ dispose(): void&lt;/p&gt;" style="verticalAlign=top;align=left;overflow=fill;fontSize=12;fontFamily=Helvetica;html=1;whiteSpace=wrap;" vertex="1" parent="WIyWlLk6GJQsqaUBKTNV-1">
          <mxGeometry x="220" y="-440" width="160" height="190" as="geometry" />
        </mxCell>
        <mxCell id="7ehEVVzVoGL6FdmiSFNn-27" style="edgeStyle=orthogonalEdgeStyle;rounded=0;orthogonalLoop=1;jettySize=auto;html=1;exitX=0.5;exitY=0;exitDx=0;exitDy=0;endArrow=block;endFill=0;dashed=1;" edge="1" parent="WIyWlLk6GJQsqaUBKTNV-1" source="7ehEVVzVoGL6FdmiSFNn-25" target="7ehEVVzVoGL6FdmiSFNn-26">
          <mxGeometry relative="1" as="geometry" />
        </mxCell>
        <mxCell id="7ehEVVzVoGL6FdmiSFNn-31" style="edgeStyle=orthogonalEdgeStyle;rounded=0;orthogonalLoop=1;jettySize=auto;html=1;exitX=0.5;exitY=1;exitDx=0;exitDy=0;endArrow=none;endFill=0;" edge="1" parent="WIyWlLk6GJQsqaUBKTNV-1" source="7ehEVVzVoGL6FdmiSFNn-25" target="7ehEVVzVoGL6FdmiSFNn-30">
          <mxGeometry relative="1" as="geometry" />
        </mxCell>
        <mxCell id="7ehEVVzVoGL6FdmiSFNn-25" value="&lt;p style=&quot;margin:0px;margin-top:4px;text-align:center;&quot;&gt;&lt;b&gt;WorldContactListener/INCOMPLETA&lt;/b&gt;&lt;/p&gt;&lt;hr size=&quot;1&quot;&gt;&lt;p style=&quot;margin:0px;margin-left:4px;&quot;&gt;+ field: Type&lt;/p&gt;&lt;hr size=&quot;1&quot;&gt;&lt;p style=&quot;margin:0px;margin-left:4px;&quot;&gt;+ method(): Type&lt;/p&gt;" style="verticalAlign=top;align=left;overflow=fill;fontSize=12;fontFamily=Helvetica;html=1;whiteSpace=wrap;" vertex="1" parent="WIyWlLk6GJQsqaUBKTNV-1">
          <mxGeometry x="460" y="-540" width="220" height="90" as="geometry" />
        </mxCell>
        <mxCell id="7ehEVVzVoGL6FdmiSFNn-26" value="«interface»&lt;br&gt;&lt;b&gt;ContactListener&lt;/b&gt;" style="html=1;whiteSpace=wrap;" vertex="1" parent="WIyWlLk6GJQsqaUBKTNV-1">
          <mxGeometry x="515" y="-650" width="110" height="50" as="geometry" />
        </mxCell>
        <mxCell id="7ehEVVzVoGL6FdmiSFNn-94" style="edgeStyle=orthogonalEdgeStyle;rounded=0;orthogonalLoop=1;jettySize=auto;html=1;exitX=1;exitY=0.75;exitDx=0;exitDy=0;entryX=0.374;entryY=0.014;entryDx=0;entryDy=0;entryPerimeter=0;endArrow=none;endFill=0;startArrow=diamond;startFill=0;" edge="1" parent="WIyWlLk6GJQsqaUBKTNV-1" target="7ehEVVzVoGL6FdmiSFNn-68">
          <mxGeometry relative="1" as="geometry">
            <mxPoint x="649.9999999999998" y="-299.97" as="sourcePoint" />
            <mxPoint x="977.4400000000003" y="37.96999999999957" as="targetPoint" />
          </mxGeometry>
        </mxCell>
        <mxCell id="7ehEVVzVoGL6FdmiSFNn-30" value="&lt;p style=&quot;margin:0px;margin-top:4px;text-align:center;&quot;&gt;&lt;b&gt;GameActor&lt;/b&gt;&lt;/p&gt;&lt;hr size=&quot;1&quot;&gt;&lt;p style=&quot;margin:0px;margin-left:4px;&quot;&gt;+ field: Type&lt;/p&gt;&lt;hr size=&quot;1&quot;&gt;&lt;p style=&quot;margin:0px;margin-left:4px;&quot;&gt;+ method(): Type&lt;/p&gt;" style="verticalAlign=top;align=left;overflow=fill;fontSize=12;fontFamily=Helvetica;html=1;whiteSpace=wrap;" vertex="1" parent="WIyWlLk6GJQsqaUBKTNV-1">
          <mxGeometry x="490" y="-390" width="160" height="90" as="geometry" />
        </mxCell>
        <mxCell id="7ehEVVzVoGL6FdmiSFNn-32" value="&lt;p style=&quot;margin:0px;margin-top:4px;text-align:center;&quot;&gt;&lt;b&gt;TextureUtils&lt;/b&gt;&lt;/p&gt;&lt;hr size=&quot;1&quot;&gt;&lt;p style=&quot;margin:0px;margin-left:4px;&quot;&gt;- player_atlas: TextureAtlas&lt;/p&gt;&lt;p style=&quot;margin:0px;margin-left:4px;&quot;&gt;- enemy_altas: TextureAtlas&lt;/p&gt;&lt;p style=&quot;margin:0px;margin-left:4px;&quot;&gt;- lifeMedal: Texture&lt;/p&gt;&lt;p style=&quot;margin:0px;margin-left:4px;&quot;&gt;- gameOver: Texture&lt;/p&gt;&lt;p style=&quot;margin:0px;margin-left:4px;&quot;&gt;- playerBullet: Texture&lt;/p&gt;&lt;hr size=&quot;1&quot;&gt;&lt;p style=&quot;margin:0px;margin-left:4px;&quot;&gt;+ getPlayerAtlas(): TextureAtlas&lt;/p&gt;&lt;p style=&quot;margin:0px;margin-left:4px;&quot;&gt;+ getEnemyAtlas():&amp;nbsp; TextureAtlas&lt;/p&gt;&lt;p style=&quot;margin:0px;margin-left:4px;&quot;&gt;+ getLifeMedal(): Texture&lt;/p&gt;&lt;p style=&quot;margin:0px;margin-left:4px;&quot;&gt;+ getGameOver(): Texture&lt;/p&gt;&lt;p style=&quot;margin:0px;margin-left:4px;&quot;&gt;+ getPlayerBullet(): Texture&lt;/p&gt;&lt;p style=&quot;margin:0px;margin-left:4px;&quot;&gt;&lt;br&gt;&lt;/p&gt;" style="verticalAlign=top;align=left;overflow=fill;fontSize=12;fontFamily=Helvetica;html=1;whiteSpace=wrap;" vertex="1" parent="WIyWlLk6GJQsqaUBKTNV-1">
          <mxGeometry x="390" y="-15" width="190" height="200" as="geometry" />
        </mxCell>
        <mxCell id="7ehEVVzVoGL6FdmiSFNn-33" style="edgeStyle=orthogonalEdgeStyle;rounded=0;orthogonalLoop=1;jettySize=auto;html=1;exitX=1;exitY=0.5;exitDx=0;exitDy=0;entryX=0.25;entryY=0;entryDx=0;entryDy=0;endArrow=none;endFill=0;" edge="1" parent="WIyWlLk6GJQsqaUBKTNV-1" source="7ehEVVzVoGL6FdmiSFNn-4" target="7ehEVVzVoGL6FdmiSFNn-32">
          <mxGeometry relative="1" as="geometry" />
        </mxCell>
        <mxCell id="7ehEVVzVoGL6FdmiSFNn-87" style="edgeStyle=orthogonalEdgeStyle;rounded=0;orthogonalLoop=1;jettySize=auto;html=1;exitX=0.5;exitY=0;exitDx=0;exitDy=0;entryX=0.5;entryY=1;entryDx=0;entryDy=0;endArrow=none;endFill=0;" edge="1" parent="WIyWlLk6GJQsqaUBKTNV-1" source="7ehEVVzVoGL6FdmiSFNn-39" target="7ehEVVzVoGL6FdmiSFNn-68">
          <mxGeometry relative="1" as="geometry" />
        </mxCell>
        <mxCell id="7ehEVVzVoGL6FdmiSFNn-39" value="&lt;p style=&quot;margin:0px;margin-top:4px;text-align:center;&quot;&gt;&lt;b&gt;SoundsUtils/INCOMPLETA&lt;/b&gt;&lt;/p&gt;&lt;hr size=&quot;1&quot;&gt;&lt;p style=&quot;margin:0px;margin-left:4px;&quot;&gt;- themeMusic: Music&lt;/p&gt;&lt;p style=&quot;margin:0px;margin-left:4px;&quot;&gt;- shotSound: Sound&lt;/p&gt;&lt;hr size=&quot;1&quot;&gt;&lt;p style=&quot;margin:0px;margin-left:4px;&quot;&gt;+ getShotSound(): Sound&lt;/p&gt;&lt;p style=&quot;margin:0px;margin-left:4px;&quot;&gt;+ getThemeM(): Music&lt;/p&gt;&lt;p style=&quot;margin:0px;margin-left:4px;&quot;&gt;&lt;br&gt;&lt;/p&gt;" style="verticalAlign=top;align=left;overflow=fill;fontSize=12;fontFamily=Helvetica;html=1;whiteSpace=wrap;" vertex="1" parent="WIyWlLk6GJQsqaUBKTNV-1">
          <mxGeometry x="945" y="399" width="160" height="110" as="geometry" />
        </mxCell>
        <mxCell id="7ehEVVzVoGL6FdmiSFNn-40" value="&lt;p style=&quot;margin:0px;margin-top:4px;text-align:center;&quot;&gt;&lt;b&gt;MapLoader&lt;/b&gt;&lt;/p&gt;&lt;hr size=&quot;1&quot;&gt;&lt;p style=&quot;margin:0px;margin-left:4px;&quot;&gt;- loader: TmxMapLoader&lt;/p&gt;&lt;p style=&quot;margin:0px;margin-left:4px;&quot;&gt;- map: TiledMap&lt;/p&gt;&lt;p style=&quot;margin:0px;margin-left:4px;&quot;&gt;- renderer:&amp;nbsp;OrthogonalTiledMapRenderer&lt;/p&gt;&lt;hr size=&quot;1&quot;&gt;&lt;p style=&quot;margin:0px;margin-left:4px;&quot;&gt;+ MapLoader()&lt;/p&gt;&lt;p style=&quot;margin:0px;margin-left:4px;&quot;&gt;+ getLoader(): TmxMapLoader&lt;/p&gt;&lt;p style=&quot;margin:0px;margin-left:4px;&quot;&gt;+ getMap(): TiledMap&lt;/p&gt;&lt;p style=&quot;margin:0px;margin-left:4px;&quot;&gt;+ setMap(): void&lt;/p&gt;&lt;p style=&quot;margin:0px;margin-left:4px;&quot;&gt;+ getRenderer():&amp;nbsp;OrthogonalTiledMapRenderer&lt;/p&gt;&lt;p style=&quot;margin:0px;margin-left:4px;&quot;&gt;+ dispose(): void&lt;/p&gt;" style="verticalAlign=top;align=left;overflow=fill;fontSize=12;fontFamily=Helvetica;html=1;whiteSpace=wrap;" vertex="1" parent="WIyWlLk6GJQsqaUBKTNV-1">
          <mxGeometry x="1180" y="20" width="260" height="190" as="geometry" />
        </mxCell>
        <mxCell id="7ehEVVzVoGL6FdmiSFNn-48" style="edgeStyle=orthogonalEdgeStyle;rounded=0;orthogonalLoop=1;jettySize=auto;html=1;exitX=0.5;exitY=0;exitDx=0;exitDy=0;entryX=1;entryY=0.5;entryDx=0;entryDy=0;endArrow=none;endFill=0;" edge="1" parent="WIyWlLk6GJQsqaUBKTNV-1" source="7ehEVVzVoGL6FdmiSFNn-41" target="7ehEVVzVoGL6FdmiSFNn-4">
          <mxGeometry relative="1" as="geometry" />
        </mxCell>
        <mxCell id="7ehEVVzVoGL6FdmiSFNn-41" value="&lt;p style=&quot;margin:0px;margin-top:4px;text-align:center;&quot;&gt;&lt;b&gt;GameUtils&lt;/b&gt;&lt;/p&gt;&lt;hr size=&quot;1&quot;&gt;&lt;p style=&quot;margin:0px;margin-left:4px;&quot;&gt;+ fixTimeStep(): void&lt;/p&gt;&lt;p style=&quot;margin:0px;margin-left:4px;&quot;&gt;+ createInputHandler(): void&lt;/p&gt;" style="verticalAlign=top;align=left;overflow=fill;fontSize=12;fontFamily=Helvetica;html=1;whiteSpace=wrap;" vertex="1" parent="WIyWlLk6GJQsqaUBKTNV-1">
          <mxGeometry x="740" y="-390" width="160" height="70" as="geometry" />
        </mxCell>
        <mxCell id="7ehEVVzVoGL6FdmiSFNn-45" style="edgeStyle=orthogonalEdgeStyle;rounded=0;orthogonalLoop=1;jettySize=auto;html=1;exitX=1;exitY=0.5;exitDx=0;exitDy=0;entryX=0.5;entryY=1;entryDx=0;entryDy=0;endArrow=none;endFill=0;startArrow=open;startFill=0;" edge="1" parent="WIyWlLk6GJQsqaUBKTNV-1" source="7ehEVVzVoGL6FdmiSFNn-44" target="7ehEVVzVoGL6FdmiSFNn-41">
          <mxGeometry relative="1" as="geometry" />
        </mxCell>
        <mxCell id="7ehEVVzVoGL6FdmiSFNn-47" style="edgeStyle=orthogonalEdgeStyle;rounded=0;orthogonalLoop=1;jettySize=auto;html=1;exitX=0.5;exitY=0;exitDx=0;exitDy=0;entryX=0.5;entryY=1;entryDx=0;entryDy=0;endArrow=block;endFill=0;" edge="1" parent="WIyWlLk6GJQsqaUBKTNV-1" source="7ehEVVzVoGL6FdmiSFNn-44" target="7ehEVVzVoGL6FdmiSFNn-30">
          <mxGeometry relative="1" as="geometry" />
        </mxCell>
        <mxCell id="7ehEVVzVoGL6FdmiSFNn-44" value="&lt;p style=&quot;margin:0px;margin-top:4px;text-align:center;&quot;&gt;&lt;b&gt;Player&lt;/b&gt;&lt;/p&gt;&lt;hr size=&quot;1&quot;&gt;&lt;p style=&quot;margin:0px;margin-left:4px;&quot;&gt;+ field: Type&lt;/p&gt;&lt;hr size=&quot;1&quot;&gt;&lt;p style=&quot;margin:0px;margin-left:4px;&quot;&gt;+ method(): Type&lt;/p&gt;" style="verticalAlign=top;align=left;overflow=fill;fontSize=12;fontFamily=Helvetica;html=1;whiteSpace=wrap;" vertex="1" parent="WIyWlLk6GJQsqaUBKTNV-1">
          <mxGeometry x="630" y="-240" width="160" height="90" as="geometry" />
        </mxCell>
        <mxCell id="7ehEVVzVoGL6FdmiSFNn-61" style="edgeStyle=orthogonalEdgeStyle;rounded=0;orthogonalLoop=1;jettySize=auto;html=1;exitX=0.5;exitY=0;exitDx=0;exitDy=0;entryX=0.5;entryY=1;entryDx=0;entryDy=0;endArrow=block;endFill=0;" edge="1" parent="WIyWlLk6GJQsqaUBKTNV-1" source="7ehEVVzVoGL6FdmiSFNn-59" target="7ehEVVzVoGL6FdmiSFNn-60">
          <mxGeometry relative="1" as="geometry" />
        </mxCell>
        <mxCell id="7ehEVVzVoGL6FdmiSFNn-62" style="edgeStyle=orthogonalEdgeStyle;rounded=0;orthogonalLoop=1;jettySize=auto;html=1;exitX=0;exitY=0.5;exitDx=0;exitDy=0;entryX=0.329;entryY=1.004;entryDx=0;entryDy=0;entryPerimeter=0;endArrow=diamond;endFill=0;" edge="1" parent="WIyWlLk6GJQsqaUBKTNV-1" source="7ehEVVzVoGL6FdmiSFNn-59" target="7ehEVVzVoGL6FdmiSFNn-44">
          <mxGeometry relative="1" as="geometry">
            <mxPoint x="680" y="-80" as="targetPoint" />
            <Array as="points">
              <mxPoint x="710" y="180" />
              <mxPoint x="683" y="180" />
            </Array>
          </mxGeometry>
        </mxCell>
        <mxCell id="7ehEVVzVoGL6FdmiSFNn-67" style="edgeStyle=orthogonalEdgeStyle;rounded=0;orthogonalLoop=1;jettySize=auto;html=1;exitX=0;exitY=1;exitDx=0;exitDy=0;entryX=1;entryY=1;entryDx=0;entryDy=0;endArrow=none;endFill=0;" edge="1" parent="WIyWlLk6GJQsqaUBKTNV-1" source="7ehEVVzVoGL6FdmiSFNn-59" target="7ehEVVzVoGL6FdmiSFNn-32">
          <mxGeometry relative="1" as="geometry">
            <Array as="points">
              <mxPoint x="710" y="180" />
              <mxPoint x="580" y="180" />
            </Array>
          </mxGeometry>
        </mxCell>
        <mxCell id="7ehEVVzVoGL6FdmiSFNn-59" value="&lt;p style=&quot;margin:0px;margin-top:4px;text-align:center;&quot;&gt;&lt;b&gt;HudStage&lt;/b&gt;&lt;/p&gt;&lt;hr size=&quot;1&quot;&gt;&lt;p style=&quot;margin:0px;margin-left:4px;&quot;&gt;- sprite: Sprite&lt;/p&gt;&lt;p style=&quot;margin:0px;margin-left:4px;&quot;&gt;- player: Player&lt;/p&gt;&lt;p style=&quot;margin:0px;margin-left:4px;&quot;&gt;- table: Table&lt;/p&gt;&lt;hr size=&quot;1&quot;&gt;&lt;p style=&quot;margin:0px;margin-left:4px;&quot;&gt;+ HudStage()&lt;/p&gt;&lt;p style=&quot;margin:0px;margin-left:4px;&quot;&gt;+ updateTable(): void&lt;/p&gt;&lt;p style=&quot;margin:0px;margin-left:4px;&quot;&gt;+ gameOver(): boolean&lt;/p&gt;&lt;p style=&quot;margin:0px;margin-left:4px;&quot;&gt;+ getCamera(): Camera&lt;/p&gt;&lt;p style=&quot;margin:0px;margin-left:4px;&quot;&gt;+ act(): void&lt;/p&gt;&lt;p style=&quot;margin:0px;margin-left:4px;&quot;&gt;+ draw(): void&lt;/p&gt;&lt;p style=&quot;margin:0px;margin-left:4px;&quot;&gt;&lt;br&gt;&lt;/p&gt;&lt;p style=&quot;margin:0px;margin-left:4px;&quot;&gt;&lt;br&gt;&lt;/p&gt;" style="verticalAlign=top;align=left;overflow=fill;fontSize=12;fontFamily=Helvetica;html=1;whiteSpace=wrap;" vertex="1" parent="WIyWlLk6GJQsqaUBKTNV-1">
          <mxGeometry x="710" y="20" width="160" height="185" as="geometry" />
        </mxCell>
        <mxCell id="7ehEVVzVoGL6FdmiSFNn-60" value="Stage" style="html=1;whiteSpace=wrap;" vertex="1" parent="WIyWlLk6GJQsqaUBKTNV-1">
          <mxGeometry x="735" y="-130" width="110" height="50" as="geometry" />
        </mxCell>
        <mxCell id="7ehEVVzVoGL6FdmiSFNn-69" style="edgeStyle=orthogonalEdgeStyle;rounded=0;orthogonalLoop=1;jettySize=auto;html=1;exitX=0.5;exitY=0;exitDx=0;exitDy=0;entryX=0.5;entryY=1;entryDx=0;entryDy=0;endArrow=block;endFill=0;" edge="1" parent="WIyWlLk6GJQsqaUBKTNV-1" source="7ehEVVzVoGL6FdmiSFNn-68" target="7ehEVVzVoGL6FdmiSFNn-60">
          <mxGeometry relative="1" as="geometry" />
        </mxCell>
        <mxCell id="7ehEVVzVoGL6FdmiSFNn-70" style="edgeStyle=orthogonalEdgeStyle;rounded=0;orthogonalLoop=1;jettySize=auto;html=1;exitX=0.75;exitY=0;exitDx=0;exitDy=0;entryX=1.002;entryY=0.872;entryDx=0;entryDy=0;entryPerimeter=0;endArrow=none;endFill=0;" edge="1" parent="WIyWlLk6GJQsqaUBKTNV-1">
          <mxGeometry relative="1" as="geometry">
            <mxPoint x="1076.96" y="23.5" as="sourcePoint" />
            <mxPoint x="410" y="-549.972" as="targetPoint" />
            <Array as="points">
              <mxPoint x="999.46" y="98.5" />
              <mxPoint x="999.46" y="-550.5" />
            </Array>
          </mxGeometry>
        </mxCell>
        <mxCell id="7ehEVVzVoGL6FdmiSFNn-85" style="edgeStyle=orthogonalEdgeStyle;rounded=0;orthogonalLoop=1;jettySize=auto;html=1;exitX=0.75;exitY=0;exitDx=0;exitDy=0;entryX=0;entryY=0.5;entryDx=0;entryDy=0;endArrow=none;endFill=0;startArrow=diamond;startFill=0;" edge="1" parent="WIyWlLk6GJQsqaUBKTNV-1" source="7ehEVVzVoGL6FdmiSFNn-68" target="7ehEVVzVoGL6FdmiSFNn-80">
          <mxGeometry relative="1" as="geometry" />
        </mxCell>
        <mxCell id="7ehEVVzVoGL6FdmiSFNn-89" style="edgeStyle=orthogonalEdgeStyle;rounded=0;orthogonalLoop=1;jettySize=auto;html=1;exitX=1;exitY=0.25;exitDx=0;exitDy=0;entryX=0;entryY=0.25;entryDx=0;entryDy=0;endArrow=diamond;endFill=0;" edge="1" parent="WIyWlLk6GJQsqaUBKTNV-1" source="7ehEVVzVoGL6FdmiSFNn-68" target="7ehEVVzVoGL6FdmiSFNn-40">
          <mxGeometry relative="1" as="geometry" />
        </mxCell>
        <mxCell id="7ehEVVzVoGL6FdmiSFNn-90" style="edgeStyle=orthogonalEdgeStyle;rounded=0;orthogonalLoop=1;jettySize=auto;html=1;entryX=0.995;entryY=0.37;entryDx=0;entryDy=0;entryPerimeter=0;endArrow=diamond;endFill=0;" edge="1" parent="WIyWlLk6GJQsqaUBKTNV-1" source="7ehEVVzVoGL6FdmiSFNn-68" target="7ehEVVzVoGL6FdmiSFNn-59">
          <mxGeometry relative="1" as="geometry">
            <mxPoint x="890" y="67.5" as="targetPoint" />
          </mxGeometry>
        </mxCell>
        <mxCell id="7ehEVVzVoGL6FdmiSFNn-97" style="edgeStyle=orthogonalEdgeStyle;rounded=0;orthogonalLoop=1;jettySize=auto;html=1;exitX=0.5;exitY=0;exitDx=0;exitDy=0;entryX=0;entryY=0.75;entryDx=0;entryDy=0;endArrow=diamond;endFill=0;" edge="1" parent="WIyWlLk6GJQsqaUBKTNV-1" source="7ehEVVzVoGL6FdmiSFNn-68" target="7ehEVVzVoGL6FdmiSFNn-76">
          <mxGeometry relative="1" as="geometry" />
        </mxCell>
        <mxCell id="7ehEVVzVoGL6FdmiSFNn-68" value="&lt;p style=&quot;margin:0px;margin-top:4px;text-align:center;&quot;&gt;&lt;b&gt;GameStage&lt;/b&gt;&lt;/p&gt;&lt;hr size=&quot;1&quot;&gt;&lt;p style=&quot;margin:0px;margin-left:4px;&quot;&gt;+ game: NeoContra&lt;/p&gt;&lt;p style=&quot;margin:0px;margin-left:4px;&quot;&gt;+ gameScreen: Screen&amp;nbsp;&lt;/p&gt;&lt;p style=&quot;margin:0px;margin-left:4px;&quot;&gt;- mapLoader: MapLoader&lt;/p&gt;&lt;p style=&quot;margin:0px;margin-left:4px;&quot;&gt;- world: WorldUtils&lt;/p&gt;&lt;p style=&quot;margin:0px;margin-left:4px;&quot;&gt;- player: GameActor&lt;/p&gt;&lt;p style=&quot;margin:0px;margin-left:4px;&quot;&gt;- enemy: GameActor&lt;/p&gt;&lt;p style=&quot;margin:0px;margin-left:4px;&quot;&gt;- b2Renderer:&amp;nbsp;Box2DDebugRenderer&lt;/p&gt;&lt;hr size=&quot;1&quot;&gt;&lt;p style=&quot;margin:0px;margin-left:4px;&quot;&gt;+ GameStage()&lt;/p&gt;&lt;p style=&quot;margin:0px;margin-left:4px;&quot;&gt;+ update(): void&lt;/p&gt;&lt;p style=&quot;margin:0px;margin-left:4px;&quot;&gt;+ act(): void&lt;/p&gt;&lt;p style=&quot;margin:0px;margin-left:4px;&quot;&gt;- setUpCharacters(): void&lt;/p&gt;&lt;p style=&quot;margin:0px;margin-left:4px;&quot;&gt;- setUpPlayer(): void&lt;/p&gt;&lt;p style=&quot;margin:0px;margin-left:4px;&quot;&gt;- setUpEnemy(): void&lt;/p&gt;&lt;p style=&quot;margin:0px;margin-left:4px;&quot;&gt;- followPlayer(): void&lt;/p&gt;&lt;p style=&quot;margin:0px;margin-left:4px;&quot;&gt;- setUpMusic(): void&lt;/p&gt;&lt;p style=&quot;margin:0px;margin-left:4px;&quot;&gt;+ dispose(): void&lt;/p&gt;" style="verticalAlign=top;align=left;overflow=fill;fontSize=12;fontFamily=Helvetica;html=1;whiteSpace=wrap;" vertex="1" parent="WIyWlLk6GJQsqaUBKTNV-1">
          <mxGeometry x="920" y="20" width="210" height="280" as="geometry" />
        </mxCell>
        <mxCell id="7ehEVVzVoGL6FdmiSFNn-72" style="edgeStyle=orthogonalEdgeStyle;rounded=0;orthogonalLoop=1;jettySize=auto;html=1;exitX=0.5;exitY=0;exitDx=0;exitDy=0;endArrow=block;endFill=0;" edge="1" parent="WIyWlLk6GJQsqaUBKTNV-1" source="7ehEVVzVoGL6FdmiSFNn-71">
          <mxGeometry relative="1" as="geometry">
            <mxPoint x="570" y="-300" as="targetPoint" />
          </mxGeometry>
        </mxCell>
        <mxCell id="7ehEVVzVoGL6FdmiSFNn-71" value="&lt;p style=&quot;margin:0px;margin-top:4px;text-align:center;&quot;&gt;&lt;b&gt;Enemy&lt;/b&gt;&lt;/p&gt;&lt;hr size=&quot;1&quot;&gt;&lt;p style=&quot;margin:0px;margin-left:4px;&quot;&gt;+ field: Type&lt;/p&gt;&lt;hr size=&quot;1&quot;&gt;&lt;p style=&quot;margin:0px;margin-left:4px;&quot;&gt;+ method(): Type&lt;/p&gt;" style="verticalAlign=top;align=left;overflow=fill;fontSize=12;fontFamily=Helvetica;html=1;whiteSpace=wrap;" vertex="1" parent="WIyWlLk6GJQsqaUBKTNV-1">
          <mxGeometry x="460" y="-240" width="160" height="90" as="geometry" />
        </mxCell>
        <mxCell id="7ehEVVzVoGL6FdmiSFNn-73" value="Game" style="html=1;whiteSpace=wrap;" vertex="1" parent="WIyWlLk6GJQsqaUBKTNV-1">
          <mxGeometry x="1127.5" y="-640" width="90" height="40" as="geometry" />
        </mxCell>
        <mxCell id="7ehEVVzVoGL6FdmiSFNn-74" style="edgeStyle=orthogonalEdgeStyle;rounded=0;orthogonalLoop=1;jettySize=auto;html=1;exitX=0.5;exitY=0;exitDx=0;exitDy=0;entryX=0.5;entryY=1;entryDx=0;entryDy=0;startArrow=none;startFill=0;endArrow=block;endFill=0;" edge="1" parent="WIyWlLk6GJQsqaUBKTNV-1" source="7ehEVVzVoGL6FdmiSFNn-76" target="7ehEVVzVoGL6FdmiSFNn-73">
          <mxGeometry relative="1" as="geometry" />
        </mxCell>
        <mxCell id="7ehEVVzVoGL6FdmiSFNn-82" style="edgeStyle=orthogonalEdgeStyle;rounded=0;orthogonalLoop=1;jettySize=auto;html=1;exitX=0.75;exitY=0;exitDx=0;exitDy=0;entryX=1;entryY=0.5;entryDx=0;entryDy=0;endArrow=none;endFill=0;" edge="1" parent="WIyWlLk6GJQsqaUBKTNV-1" source="7ehEVVzVoGL6FdmiSFNn-76" target="7ehEVVzVoGL6FdmiSFNn-4">
          <mxGeometry relative="1" as="geometry" />
        </mxCell>
        <mxCell id="7ehEVVzVoGL6FdmiSFNn-98" style="edgeStyle=orthogonalEdgeStyle;rounded=0;orthogonalLoop=1;jettySize=auto;html=1;exitX=0.25;exitY=1;exitDx=0;exitDy=0;entryX=0;entryY=0;entryDx=0;entryDy=0;endArrow=none;endFill=0;startArrow=diamond;startFill=0;" edge="1" parent="WIyWlLk6GJQsqaUBKTNV-1" source="7ehEVVzVoGL6FdmiSFNn-76" target="7ehEVVzVoGL6FdmiSFNn-77">
          <mxGeometry relative="1" as="geometry" />
        </mxCell>
        <mxCell id="7ehEVVzVoGL6FdmiSFNn-76" value="&lt;p style=&quot;margin:0px;margin-top:4px;text-align:center;&quot;&gt;&lt;b&gt;NeoContra&lt;/b&gt;&lt;/p&gt;&lt;hr size=&quot;1&quot;&gt;&lt;p style=&quot;margin:0px;margin-left:4px;&quot;&gt;- batch: SpriteBatch&lt;/p&gt;&lt;p style=&quot;margin:0px;margin-left:4px;&quot;&gt;- camera: OrthographicCamera&lt;/p&gt;&lt;p style=&quot;margin:0px;margin-left:4px;&quot;&gt;- viewport: Viewport&lt;/p&gt;&lt;hr size=&quot;1&quot;&gt;&lt;p style=&quot;margin:0px;margin-left:4px;&quot;&gt;+ create(): void&lt;/p&gt;&lt;p style=&quot;margin:0px;margin-left:4px;&quot;&gt;+ getSpriteBatch(): SpriteBatch&lt;/p&gt;&lt;p style=&quot;margin:0px;margin-left:4px;&quot;&gt;+ getCamera(): OrthographicCamera&lt;/p&gt;&lt;p style=&quot;margin:0px;margin-left:4px;&quot;&gt;+ getViewport(): Viewport&lt;/p&gt;&lt;p style=&quot;margin:0px;margin-left:4px;&quot;&gt;+ alignCameraToWorldCenter(): void&lt;/p&gt;&lt;p style=&quot;margin:0px;margin-left:4px;&quot;&gt;+ render(): void&lt;/p&gt;&lt;p style=&quot;margin:0px;margin-left:4px;&quot;&gt;+ dispose(): void&lt;/p&gt;" style="verticalAlign=top;align=left;overflow=fill;fontSize=12;fontFamily=Helvetica;html=1;whiteSpace=wrap;" vertex="1" parent="WIyWlLk6GJQsqaUBKTNV-1">
          <mxGeometry x="1060" y="-550" width="225" height="190" as="geometry" />
        </mxCell>
        <mxCell id="7ehEVVzVoGL6FdmiSFNn-96" style="edgeStyle=orthogonalEdgeStyle;rounded=0;orthogonalLoop=1;jettySize=auto;html=1;exitX=0.75;exitY=0;exitDx=0;exitDy=0;entryX=0;entryY=0.5;entryDx=0;entryDy=0;endArrow=block;endFill=0;dashed=1;" edge="1" parent="WIyWlLk6GJQsqaUBKTNV-1" source="7ehEVVzVoGL6FdmiSFNn-77" target="7ehEVVzVoGL6FdmiSFNn-95">
          <mxGeometry relative="1" as="geometry" />
        </mxCell>
        <mxCell id="7ehEVVzVoGL6FdmiSFNn-77" value="GameScreen" style="swimlane;fontStyle=1;align=center;verticalAlign=top;childLayout=stackLayout;horizontal=1;startSize=26;horizontalStack=0;resizeParent=1;resizeParentMax=0;resizeLast=0;collapsible=1;marginBottom=0;whiteSpace=wrap;html=1;" vertex="1" parent="WIyWlLk6GJQsqaUBKTNV-1">
          <mxGeometry x="1101" y="-280" width="160" height="210" as="geometry" />
        </mxCell>
        <mxCell id="7ehEVVzVoGL6FdmiSFNn-78" value="gameStage: GameStage&lt;br&gt;- game: NeoContra" style="text;strokeColor=none;fillColor=none;align=left;verticalAlign=top;spacingLeft=4;spacingRight=4;overflow=hidden;rotatable=0;points=[[0,0.5],[1,0.5]];portConstraint=eastwest;whiteSpace=wrap;html=1;" vertex="1" parent="7ehEVVzVoGL6FdmiSFNn-77">
          <mxGeometry y="26" width="160" height="44" as="geometry" />
        </mxCell>
        <mxCell id="7ehEVVzVoGL6FdmiSFNn-79" value="" style="line;strokeWidth=1;fillColor=none;align=left;verticalAlign=middle;spacingTop=-1;spacingLeft=3;spacingRight=3;rotatable=0;labelPosition=right;points=[];portConstraint=eastwest;strokeColor=inherit;" vertex="1" parent="7ehEVVzVoGL6FdmiSFNn-77">
          <mxGeometry y="70" width="160" height="8" as="geometry" />
        </mxCell>
        <mxCell id="7ehEVVzVoGL6FdmiSFNn-80" value="+ GameScreen()&lt;br&gt;+ show(): void&lt;br&gt;+ render(): void&lt;br&gt;+ resize(): void&lt;br&gt;+ pause(): void&lt;br&gt;+ resume(): void&lt;br&gt;+ hide(): void&lt;br&gt;+ dispose(): void" style="text;strokeColor=none;fillColor=none;align=left;verticalAlign=top;spacingLeft=4;spacingRight=4;overflow=hidden;rotatable=0;points=[[0,0.5],[1,0.5]];portConstraint=eastwest;whiteSpace=wrap;html=1;" vertex="1" parent="7ehEVVzVoGL6FdmiSFNn-77">
          <mxGeometry y="78" width="160" height="132" as="geometry" />
        </mxCell>
        <mxCell id="7ehEVVzVoGL6FdmiSFNn-95" value="«interface»&lt;br&gt;&lt;b&gt;Screen&lt;/b&gt;" style="html=1;whiteSpace=wrap;" vertex="1" parent="WIyWlLk6GJQsqaUBKTNV-1">
          <mxGeometry x="1300" y="-350" width="110" height="50" as="geometry" />
        </mxCell>
        <mxCell id="7ehEVVzVoGL6FdmiSFNn-102" value="&lt;p style=&quot;margin:0px;margin-top:4px;text-align:center;&quot;&gt;&amp;lt;&amp;lt; enum &amp;gt;&amp;gt;&lt;/p&gt;&lt;p style=&quot;margin:0px;margin-top:4px;text-align:center;&quot;&gt;&lt;b&gt;ActorStates&lt;/b&gt;&lt;/p&gt;&lt;hr size=&quot;1&quot;&gt;&lt;p style=&quot;margin:0px;margin-left:4px;&quot;&gt;FALLING&lt;/p&gt;&lt;p style=&quot;margin:0px;margin-left:4px;&quot;&gt;JUMPING&lt;/p&gt;&lt;p style=&quot;margin:0px;margin-left:4px;&quot;&gt;RUNNING&lt;/p&gt;&lt;p style=&quot;margin:0px;margin-left:4px;&quot;&gt;STANDING&lt;/p&gt;&lt;p style=&quot;margin:0px;margin-left:4px;&quot;&gt;CROUCHING&lt;/p&gt;&lt;p style=&quot;margin:0px;margin-left:4px;&quot;&gt;AIMING_UP&lt;/p&gt;&lt;p style=&quot;margin:0px;margin-left:4px;&quot;&gt;DEAD&lt;/p&gt;" style="verticalAlign=top;align=left;overflow=fill;fontSize=12;fontFamily=Helvetica;html=1;whiteSpace=wrap;" vertex="1" parent="WIyWlLk6GJQsqaUBKTNV-1">
          <mxGeometry x="1180" y="440" width="160" height="150" as="geometry" />
        </mxCell>
        <mxCell id="7ehEVVzVoGL6FdmiSFNn-103" value="&lt;p style=&quot;margin:0px;margin-top:4px;text-align:center;&quot;&gt;&amp;lt;&amp;lt; enum &amp;gt;&amp;gt;&lt;/p&gt;&lt;p style=&quot;margin:0px;margin-top:4px;text-align:center;&quot;&gt;&lt;b&gt;GameState&lt;/b&gt;&lt;/p&gt;&lt;hr size=&quot;1&quot;&gt;&lt;p style=&quot;margin:0px;margin-left:4px;&quot;&gt;RUNNING&lt;/p&gt;&lt;p style=&quot;margin:0px;margin-left:4px;&quot;&gt;PAUSED&lt;/p&gt;&lt;p style=&quot;margin:0px;margin-left:4px;&quot;&gt;OVER&lt;/p&gt;" style="verticalAlign=top;align=left;overflow=fill;fontSize=12;fontFamily=Helvetica;html=1;whiteSpace=wrap;" vertex="1" parent="WIyWlLk6GJQsqaUBKTNV-1">
          <mxGeometry x="1354" y="440" width="160" height="100" as="geometry" />
        </mxCell>
      </root>
    </mxGraphModel>
  </diagram>
</mxfile>
